# xmcd
# 
# Track frame offsets:
#     150
#     2995
#     33615
#     55487
#     82357
#     104030
#     121822
#     141755
#     165977
#     187000
#     210302
# 
# Disc length: 2823
# 
# Revision: 5
# Processed by: cddbd v1.5.2PL0 Copyright (c) Steve Scherf et al.
# Submitted via: fre:ac v1.0.27
# 
DISCID=9d0b050b
DTITLE=Bobby Brown - Don't Be Cruel
DYEAR=1988
DGENRE=R&B
TTITLE0=Cruel Prelude
TTITLE1=Don't Be Cruel
TTITLE2=My Prerogative
TTITLE3=Roni
TTITLE4=Rock Wit'cha
TTITLE5=Every Little Step
TTITLE6=I'll Be Good To You
TTITLE7=Take It Slow
TTITLE8=All Day All Night
TTITLE9=I Really Love You Girl
TTITLE10=Cruel Reprise
EXTD=YEAR: 1988
EXTT0=
EXTT1=
EXTT2=
EXTT3=
EXTT4=
EXTT5=
EXTT6=
EXTT7=
EXTT8=
EXTT9=
EXTT10=
PLAYORDER=
